PathFileType	3	(X/Y/Z)	walking_2__view2_aligned.trc
DataRate	CameraRate	NumFrames	NumMarkers	Units	OrigDataRate	OrigDataStartFrame	OrigNumFrames
100.0	100.0	12	19	mm	100.0	1798	6310
Frame#	Time	pelvis			neck			head			hip_left			hip_right			knee_left			knee_right			ankle_left			ankle_right			heel_left			heel_right			toe_left			toe_right			shoulder_left			shoulder_right			elbow_left			elbow_right			wrist_left			wrist_right			
		X1	Y1	Z1	X2	Y2	Z2	X3	Y3	Z3	X4	Y4	Z4	X5	Y5	Z5	X6	Y6	Z6	X7	Y7	Z7	X8	Y8	Z8	X9	Y9	Z9	X10	Y10	Z10	X11	Y11	Z11	X12	Y12	Z12	X13	Y13	Z13	X14	Y14	Z14	X15	Y15	Z15	X16	Y16	Z16	X17	Y17	Z17	X18	Y18	Z18	X19	Y19	Z19	
1798	17.97000	30.067851	929.258045	179.910573	12.893908	1489.227075	243.805281	-13.277666	1589.228179	383.505368	106.379947	931.855336	178.273826	-46.244580	926.660763	181.547276	147.981182	496.835939	134.476196	-74.673745	541.781662	395.265873	146.219035	167.558619	-102.794036	-86.320526	127.973542	406.455316	140.285840	139.811115	-151.947649	-84.045210	75.172073	377.951271	158.098949	44.405521	29.148885	-105.052783	85.704425	599.522074	193.306952	1436.679560	232.394104	-152.435821	1431.653843	183.504985	268.522615	1154.411783	246.591954	-205.741679	1149.862428	114.954646	261.984900	917.858936	377.384551	-272.713901	876.324538	107.904492
1799	17.98000	24.425203	928.878859	180.017100	7.141893	1488.656221	244.216504	-18.865806	1588.504619	383.901506	100.701273	931.364161	178.415421	-51.851250	926.393560	181.618728	144.136810	496.997803	136.756498	-77.546022	540.731284	393.576003	142.911657	172.533267	-107.720689	-87.984860	124.644513	409.658629	136.946843	146.036012	-157.518134	-85.865492	71.035353	381.566200	155.265102	45.870488	20.809642	-105.418635	84.505188	605.120499	187.243940	1436.290583	232.718203	-158.041998	1431.302753	183.814940	262.564069	1154.281224	247.076701	-211.450469	1149.722826	115.088138	256.742016	918.336207	378.077439	-280.198980	875.457473	106.032839
1800	17.99000	18.782555	928.499673	180.123627	1.389878	1488.085367	244.627726	-24.453946	1587.781059	384.297644	95.022599	930.872986	178.557016	-57.457921	926.126357	181.690181	140.292438	497.159667	139.036800	-80.418299	539.680906	391.886134	139.604279	177.507915	-112.647342	-89.649193	121.315485	412.861941	133.607845	152.260910	-163.088619	-87.685774	66.898634	385.181129	152.431255	47.335454	12.470399	-105.784486	83.305951	610.718925	181.180927	1435.901607	233.042303	-163.648174	1430.951662	184.124896	256.605522	1154.150664	247.561449	-217.159259	1149.583224	115.221629	251.499132	918.813479	378.770327	-287.684060	874.590408	104.161186
1801	18.00000	13.139907	928.120488	180.230155	-4.362138	1487.514513	245.038949	-30.042086	1587.057499	384.693782	89.343926	930.381810	178.698611	-63.064592	925.859154	181.761633	136.448067	497.321531	141.317102	-83.290575	538.630527	390.196264	136.296902	182.482564	-117.573995	-91.313526	117.986456	416.065254	130.268848	158.485807	-168.659104	-89.506056	62.761914	388.796058	149.597408	48.800421	4.131155	-106.150338	82.106714	616.317350	175.117914	1435.512630	233.366402	-169.254351	1430.600572	184.434852	250.646975	1154.020105	248.046196	-222.868049	1149.443622	115.355121	246.256247	919.290751	379.463215	-295.169139	873.723342	102.289533
1802	18.01000	9.426116	928.567731	180.805222	-7.942321	1487.843568	245.528097	-32.937206	1587.398036	385.234938	85.587860	930.697054	179.323869	-66.736061	926.438399	182.286518	134.119935	498.356154	146.911704	-86.147261	537.448410	386.902016	134.490366	185.767470	-116.564365	-93.615617	117.213339	411.865078	128.525206	162.545216	-168.174694	-91.819322	62.057227	384.620604	147.517138	49.375972	3.127327	-108.231816	81.482377	611.790906	171.254239	1435.986265	232.842419	-173.073936	1430.832030	185.955924	247.157067	1154.503869	246.862244	-226.694256	1149.410085	118.088638	244.584073	920.366805	378.397286	-297.286573	874.261018	106.520948
1803	18.02000	5.712324	929.014975	181.380289	-11.522505	1488.172622	246.017244	-35.832327	1587.738573	385.776094	81.831793	931.012298	179.949127	-70.407531	927.017643	182.811403	131.791803	499.390777	152.506306	-89.003946	536.266292	383.607768	132.683831	189.052377	-115.554736	-95.917708	116.440222	407.664901	126.781564	166.604625	-167.690284	-94.132587	61.352539	380.445149	145.436869	49.951522	2.123499	-110.313294	80.858040	607.264463	167.390563	1436.459900	232.318435	-176.893520	1431.063489	187.476996	243.667159	1154.987634	245.678292	-230.520464	1149.376547	120.822155	242.911898	921.442859	377.331357	-299.404006	874.798694	110.752363
1804	18.03000	1.998532	929.462219	181.955357	-15.102689	1488.501677	246.506392	-38.727447	1588.079111	386.317250	78.075727	931.327542	180.574385	-74.079000	927.596888	183.336287	129.463671	500.425400	158.100908	-91.860632	535.084175	380.313520	130.877296	192.337283	-114.545106	-98.219800	115.667105	403.464725	125.037922	170.664035	-167.205874	-96.445853	60.647852	376.269695	143.356599	50.527072	1.119671	-112.394772	80.233703	602.738019	163.526888	1436.933534	231.794452	-180.713105	1431.294947	188.998068	240.177251	1155.471398	244.494340	-234.346671	1149.343010	123.555672	241.239724	922.518913	376.265428	-301.521440	875.336369	114.983779
1805	18.04000	-1.715259	929.909463	182.530424	-18.682873	1488.830732	246.995540	-41.622568	1588.419648	386.858406	74.319661	931.642786	181.199643	-77.750469	928.176133	183.861172	127.135540	501.460024	163.695510	-94.717317	533.902057	377.019271	129.070761	195.622190	-113.535476	-100.521891	114.893988	399.264549	123.294279	174.723444	-166.721464	-98.759118	59.943164	372.094241	141.276330	51.102623	0.115842	-114.476250	79.609366	598.211575	159.663213	1437.407169	231.270468	-184.532690	1431.526406	190.519141	236.687343	1155.955162	243.310388	-238.172878	1149.309472	126.289189	239.567549	923.594967	375.199499	-303.638873	875.874045	119.215194
1806	18.05000	-5.429051	930.356706	183.105491	-22.263057	1489.159787	247.484687	-44.517688	1588.760185	387.399562	70.563595	931.958029	181.824900	-81.421938	928.755378	184.386057	124.807408	502.494647	169.290112	-97.574002	532.719940	373.725023	127.264225	198.907096	-112.525847	-102.823982	114.120871	395.064372	121.550637	178.782854	-166.237054	-101.072384	59.238477	367.918786	139.196060	51.678173	-0.887986	-116.557728	78.985029	593.685132	155.799537	1437.880804	230.746485	-188.352274	1431.757864	192.040213	233.197435	1156.438927	242.126436	-241.999085	1149.275935	129.022706	237.895374	924.671021	374.133570	-305.756307	876.411720	123.446610
1807	18.06000	-9.142843	930.803950	183.680559	-25.843241	1489.488841	247.973835	-47.412809	1589.100723	387.940718	66.807529	932.273273	182.450158	-85.093408	929.334623	184.910942	122.479276	503.529270	174.884714	-100.430688	531.537822	370.430775	125.457690	202.192003	-111.516217	-105.126073	113.347754	390.864196	119.806995	182.842263	-165.752644	-103.385649	58.533789	363.743332	137.115791	52.253724	-1.891814	-118.639206	78.360692	589.158688	151.935862	1438.354439	230.222502	-192.171859	1431.989323	193.561285	229.707527	1156.922691	240.942484	-245.825292	1149.242397	131.756223	236.223200	925.747075	373.067641	-307.873740	876.949396	127.678025
1808	18.07000	-12.856634	931.251194	184.255626	-29.423425	1489.817896	248.462982	-50.307929	1589.441260	388.481874	63.051463	932.588517	183.075416	-88.764877	929.913868	185.435826	120.151145	504.563893	180.479316	-103.287373	530.355704	367.136527	123.651155	205.476910	-110.506588	-107.428164	112.574636	386.664020	118.063353	186.901672	-165.268234	-105.698915	57.829102	359.567878	135.035521	52.829274	-2.895642	-120.720684	77.736354	584.632244	148.072186	1438.828073	229.698518	-195.991444	1432.220781	195.082357	226.217619	1157.406456	239.758532	-249.651499	1149.208860	134.489739	234.551025	926.823129	372.001712	-309.991174	877.487071	131.909441
1809	18.08000	-16.570426	931.698438	184.830693	-33.003609	1490.146951	248.952130	-53.203050	1589.781797	389.023029	59.295397	932.903761	183.700674	-92.436346	930.493112	185.960711	117.823013	505.598516	186.073918	-106.144058	529.173587	363.842279	121.844620	208.761816	-109.496958	-109.730255	111.801519	382.463843	116.319711	190.961082	-164.783824	-108.012180	57.124414	355.392423	132.955252	53.404824	-3.899470	-122.802162	77.112017	580.105801	144.208511	1439.301708	229.174535	-199.811028	1432.452240	196.603429	222.727710	1157.890220	238.574580	-253.477706	1149.175322	137.223256	232.878851	927.899183	370.935783	-312.108607	878.024747	136.140856
